<?xml version="1.0" encoding="UTF-8"?>
<svg version="1.1" xmlns="http://www.w3.org/2000/svg" width="512" height="512">
<path d="M0 0 C0.66242981 1.77047729 0.66242981 1.77047729 1.24926758 4.10498047 C1.47322708 4.97613495 1.69718658 5.84728943 1.92793274 6.74484253 C2.282649 8.16665329 2.282649 8.16665329 2.64453125 9.6171875 C3.16144569 11.6056414 3.67904535 13.59391727 4.19726562 15.58203125 C5.00828386 18.72930286 5.81320377 21.87779906 6.60571289 25.02978516 C7.37215559 28.06369019 8.16280446 31.09045579 8.95703125 34.1171875 C9.18743607 35.06101288 9.41784088 36.00483826 9.65522766 36.9772644 C10.99972829 42.21536516 10.99972829 42.21536516 14.5456543 46.14892578 C16.94938498 47.22068669 16.94938498 47.22068669 19.3125 46.5 C22.32903017 44.81635526 25.24404947 43.01508819 28.1328125 41.12109375 C32.81233082 38.3114248 37.71898982 38.46424534 43 39 C49.70560923 40.77816475 54.24034662 44.20121258 58 50 C60.47952105 55.0717476 60.7961781 60.45925037 60 66 C57.32145386 73.725724 53.85133449 78.03932062 46.5625 81.75 C41.50478755 83.56186251 36.37239059 83.13353863 31.07421875 82.91015625 C27.8258307 82.73322152 27.8258307 82.73322152 25 85 C24.40781467 91.25436148 25.67347766 96.64187882 27.3359375 102.64453125 C27.57535065 103.53613449 27.81476379 104.42773773 28.06143188 105.34635925 C28.56612993 107.2174702 29.07567862 109.0872789 29.58984375 110.95581055 C30.37660395 113.81833578 31.14646265 116.68501859 31.9140625 119.55273438 C32.40786881 121.37526726 32.90262715 123.19754253 33.3984375 125.01953125 C33.6287265 125.87577591 33.8590155 126.73202057 34.09628296 127.61421204 C34.31636017 128.40901474 34.53643738 129.20381744 34.76318359 130.02270508 C34.95415619 130.7202742 35.14512878 131.41784332 35.34188843 132.1365509 C36.01741042 134.29257003 36.01741042 134.29257003 38 137 C42.73708281 138.38703772 46.11830817 137.72054738 50.7890625 136.34765625 C51.72762589 136.07918129 51.72762589 136.07918129 52.68515015 135.80528259 C54.66872263 135.23607774 56.64689131 134.65038425 58.625 134.0625 C60.61086373 133.48076044 62.59765823 132.9026945 64.58627319 132.33042908 C66.3860495 131.81126563 68.18262497 131.28104369 69.97900391 130.75024414 C73 130 73 130 77 130 C77.27972656 130.97839844 77.55945313 131.95679688 77.84765625 132.96484375 C81.17204137 144.05509444 85.31287721 152.5072586 95.54296875 158.78125 C105.22087745 163.58173889 114.38490616 164.22244548 124.59765625 160.93359375 C127.97222295 159.62217677 130.90463464 157.87011657 134 156 C134.66 156 135.32 156 136 156 C140.85932681 208.41131058 128.78868397 260.36299272 108.6875 308.5625 C83.9447722 368.46857043 98.38038327 434.26840582 122 492 C123.35185437 495.20417055 124.70576877 498.40716193 126.07543945 501.60375977 C127 504 127 504 127 506 C54.73 506 -17.54 506 -92 506 C-93.98 498.08 -95.96 490.16 -98 482 C-103.79712649 465.93910856 -111.92565495 444.04956337 -127 434 C-132.17535819 434.2372657 -135.99515171 436.47066535 -140.375 439 C-157.0871918 448.20128241 -175.3697877 454.109325 -194 458 C-194.94101563 458.19980469 -195.88203125 458.39960938 -196.8515625 458.60546875 C-201.64858741 459.20658478 -206.41962043 459.26587471 -211.25 459.3125 C-212.23613281 459.34150391 -213.22226563 459.37050781 -214.23828125 459.40039062 C-222.16797547 459.46829973 -229.63972529 458.27626784 -235.5 452.5625 C-238.60952873 447.25038842 -239.38606832 442.74968665 -239.375 436.625 C-239.37584595 435.43886108 -239.37584595 435.43886108 -239.37670898 434.22875977 C-239.25369388 427.52208383 -237.88772014 421.6872514 -235.96875 415.29296875 C-234.72971484 411.08124842 -234.0731741 407.39044595 -234 403 C-236.27510143 399.69362422 -239.08480697 399.29395565 -242.875 398.5 C-247.14091387 397.60191287 -250.44617519 396.5828691 -254 394 C-255.97026997 388.85540618 -254.72531703 385.81906967 -252.625 380.8125 C-252.16351563 379.80832031 -251.70203125 378.80414063 -251.2265625 377.76953125 C-249.16271901 373.47585772 -249.16271901 373.47585772 -249.6640625 368.9609375 C-251.28225989 366.5856887 -253.03202857 365.2829831 -255.375 363.625 C-259.14299331 360.76254056 -262.01874274 358.41280026 -264 354 C-264.54358339 345.98214494 -259.89893551 340.9743116 -255 335 C-253.98240886 333.91362065 -252.9622667 332.82961337 -251.9375 331.75 C-249.60049759 329.03143415 -249.60049759 329.03143415 -250.1875 325.125 C-250.455625 324.09375 -250.72375 323.0625 -251 322 C-251.71800781 321.72414063 -252.43601562 321.44828125 -253.17578125 321.1640625 C-264.95084246 316.31071777 -276.31828987 309.11974638 -283 298 C-285.453148 290.640556 -284.64056272 282.7103424 -281.43359375 275.73046875 C-275.51771721 264.46290007 -268.53956151 254.58745201 -260.6328125 244.6328125 C-255.85714282 238.59863747 -251.39549452 232.34679754 -246.9296875 226.08203125 C-245.13855877 223.56968553 -243.32206928 221.08573008 -241.4453125 218.63671875 C-240.72085938 217.68410156 -239.99640625 216.73148438 -239.25 215.75 C-238.32960938 214.56664062 -238.32960938 214.56664062 -237.390625 213.359375 C-235.63967226 210.38865742 -235.08113135 208.46302768 -235 205 C-236.07667347 202.3418712 -237.17460585 200.04319294 -238.5625 197.5625 C-239.31296137 196.13770863 -240.05897404 194.7105662 -240.80078125 193.28125 C-241.17412598 192.56453125 -241.5474707 191.8478125 -241.93212891 191.109375 C-255.99913195 163.32270232 -258.5251382 129.18854954 -249.05004883 99.61669922 C-236.37096426 62.15443213 -206.56125769 37.18297637 -172.21484375 19.95703125 C-146.2919567 7.37903812 -118.46875125 -0.01614081 -90 -4 C-89.16968262 -4.11714355 -88.33936523 -4.23428711 -87.48388672 -4.35498047 C-62.61310122 -7.68196092 -23.18277403 -11.59138702 0 0 Z M-144 57 C-144.81855469 57.69738281 -145.63710937 58.39476562 -146.48046875 59.11328125 C-173.70104345 82.87325576 -190.22091993 116.15592594 -192.6875 152.1875 C-194.55955255 186.67247627 -184.38041202 214.96617733 -162.4375 241.5625 C-151.52693948 254.81511801 -143.73005092 266.20843653 -142.625 283.625 C-141.94318695 291.68175751 -138.98539423 296.67136964 -132.87890625 301.87109375 C-130.62286053 303.22659731 -128.5737391 303.53609929 -126 304 C-126.02094727 304.95777344 -126.04189453 305.91554688 -126.06347656 306.90234375 C-126.13639479 310.48796376 -126.18198558 314.07351953 -126.21972656 317.65966797 C-126.23972503 319.20567887 -126.26693331 320.75161527 -126.30175781 322.29736328 C-126.64077846 335.56828906 -126.64077846 335.56828906 -120.32421875 346.98828125 C-112.98871374 352.92321251 -106.30245744 354.51216769 -97 355 C-97.04640625 355.59425781 -97.0928125 356.18851562 -97.140625 356.80078125 C-97.60783609 367.52995016 -93.75884784 376.73918597 -87 385 C-78.31029568 394.28899427 -67.37799093 398.90793739 -54.8125 399.375 C-42.3103213 399.12929244 -30.56932387 394.58038334 -21.6796875 385.67578125 C-13.6014064 376.18156527 -11.38573216 367.30485604 -11 355 C-10.29875 354.97421875 -9.5975 354.9484375 -8.875 354.921875 C0.42555318 354.36586367 5.9484023 352.47849917 12.375 345.625 C17.28207736 340.09231915 18.2555785 334.92499812 18.1953125 327.6328125 C18.1924826 326.95322479 18.18965271 326.27363708 18.18673706 325.57345581 C18.17562964 323.42378392 18.15054391 321.27454386 18.125 319.125 C18.11495795 317.65886023 18.10583425 316.19271386 18.09765625 314.7265625 C18.07572159 311.15090369 18.04125814 307.57549406 18 304 C18.93585938 303.71640625 19.87171875 303.4328125 20.8359375 303.140625 C26.66196106 301.04037947 30.04670487 296.27288725 33 291 C33.70382215 287.73438142 33.9535239 284.44890682 34.25 281.125 C36.14910174 265.14367016 43.0376773 254.31941128 53.61083984 242.57226562 C71.95457324 221.81064119 81.89105563 197.6503804 84.3125 170.13671875 C83.90451517 166.04157106 83.05039804 164.7688184 80 162 C76.78655697 161.24569588 73.63251484 161.29925372 70.34375 161.3359375 C69.40446655 161.33115387 68.46518311 161.32637024 67.49743652 161.32144165 C65.5137362 161.31804279 63.52997985 161.3272443 61.54638672 161.34814453 C58.51012268 161.37491076 55.47755532 161.3483968 52.44140625 161.31640625 C50.51301267 161.31971035 48.5846214 161.32611659 46.65625 161.3359375 C45.74887085 161.32581635 44.8414917 161.31569519 43.90661621 161.30526733 C38.62565992 161.37504565 38.62565992 161.37504565 34.38867188 164.38525391 C32.77967863 166.87562657 32.77967863 166.87562657 33.125 169.5 C33.95735753 171.99290089 33.95735753 171.99290089 35.03125 174.29296875 C37.1956712 180.34112962 37.05249814 187.56931657 34.375 193.4375 C31.61364585 198.11430051 28.17782988 200.96058119 23.25 203.3125 C15.9888485 204.84851282 10.1850002 204.75493748 3.69140625 200.97265625 C1.85161268 199.8400965 1.85161268 199.8400965 -1 199 C-2.08203125 197.1953125 -2.08203125 197.1953125 -3 195 C-3.29261719 194.33742187 -3.58523438 193.67484375 -3.88671875 192.9921875 C-6.10525905 187.1265834 -6.40879347 182.13301821 -5 176 C-4.33534819 174.66566114 -3.66882329 173.33225284 -3 172 C-2.44459002 167.36950241 -2.44459002 167.36950241 -4.26301575 163.30644226 C-6.39345483 161.70406985 -7.46071718 161.635022 -10.10424805 161.65942383 C-10.92487228 161.65965042 -11.74549652 161.65987701 -12.59098816 161.66011047 C-13.9129998 161.68333626 -13.9129998 161.68333626 -15.26171875 161.70703125 C-16.62040825 161.71339851 -16.62040825 161.71339851 -18.00654602 161.71989441 C-20.90049933 161.73669152 -23.79375706 161.7743455 -26.6875 161.8125 C-28.64907849 161.82754551 -30.61066789 161.84123415 -32.57226562 161.85351562 C-37.38199419 161.88404712 -42.19021825 161.94276593 -47 162 C-47 152.76 -47 143.52 -47 134 C-45.68 134.33 -44.36 134.66 -43 135 C-34.57822989 135.89593299 -25.4129496 133.1013802 -18.5625 128.1875 C-10.42708771 121.3366265 -4.77590349 112.98072159 -3.7265625 102.1875 C-3.37509324 91.15677244 -6.10172709 83.02525392 -13.25 74.5625 C-20.82087879 66.75346442 -29.03094661 63.34274033 -39.8125 62.8125 C-42.41723507 62.96571971 -44.5100918 63.3248622 -47 64 C-46.98428955 63.02651611 -46.9685791 62.05303223 -46.95239258 61.05004883 C-46.89793761 57.42529633 -46.86359374 53.80057974 -46.83520508 50.17553711 C-46.82015378 48.60906893 -46.79970793 47.04264264 -46.77368164 45.47631836 C-46.73713567 43.21978394 -46.72023739 40.96380847 -46.70703125 38.70703125 C-46.69154739 38.01100296 -46.67606354 37.31497467 -46.66011047 36.59785461 C-46.65860243 32.2033226 -47.37869978 29.53222795 -50 26 C-52.10782901 23.89217099 -56.60079722 24.75982781 -59.5 24.75 C-90.04736643 24.76438065 -120.99311152 37.0091406 -144 57 Z " fill="#6561EE" transform="translate(318,6)"/>
<path d="M0 0 C16.52847429 13.98681224 34.78374569 36.40281324 38.390625 58.67529297 C38.08411149 60.34709988 37.75319958 62.01474229 37.390625 63.67529297 C36.52783936 63.89668945 35.66505371 64.11808594 34.77612305 64.34619141 C31.56915826 65.17672248 28.36631196 66.02053353 25.1652832 66.87353516 C23.78062378 67.23958151 22.39454878 67.60031685 21.00708008 67.95556641 C19.0098482 68.46793402 17.01853066 68.99935293 15.02734375 69.53466797 C13.82811279 69.84887695 12.62888184 70.16308594 11.39331055 70.48681641 C8.16269381 71.76550917 7.00942434 72.63981494 5.390625 75.67529297 C5.59113912 79.6291808 7.10693004 82.08124345 9.390625 85.23779297 C13.20792709 90.53246438 14.05475866 95.14069217 13.390625 101.67529297 C11.89593767 107.64305194 9.50713108 112.60524673 4.26171875 116.08935547 C-1.66071296 119.40740015 -6.85731267 120.97336387 -13.609375 119.67529297 C-20.12622377 117.43007208 -24.83448363 114.45559538 -28.609375 108.67529297 C-30.56903947 103.95304596 -30.7712773 100.07253718 -30.609375 94.98779297 C-30.27335249 89.47151873 -30.27335249 89.47151873 -32.609375 84.67529297 C-36.4964663 82.77122334 -40.34580917 84.44580347 -44.26171875 85.58154297 C-45.77538892 85.99951789 -47.28906085 86.41748645 -48.80273438 86.83544922 C-51.17784391 87.50422424 -53.55186983 88.17671098 -55.92553711 88.85058594 C-58.22267253 89.49914963 -60.52318509 90.13447426 -62.82421875 90.76904297 C-63.5295726 90.97420532 -64.23492645 91.17936768 -64.96165466 91.39074707 C-68.86091754 92.46275385 -71.71160082 92.87388098 -75.609375 91.67529297 C-76.64615278 88.09637717 -77.66098499 84.511599 -78.671875 80.92529297 C-78.96642578 79.90951172 -79.26097656 78.89373047 -79.56445312 77.84716797 C-79.83837891 76.86748047 -80.11230469 75.88779297 -80.39453125 74.87841797 C-80.65113525 73.97768555 -80.90773926 73.07695313 -81.17211914 72.14892578 C-81.62384415 69.59343845 -81.44474852 68.10456909 -80.609375 65.67529297 C-78.7221875 65.36591797 -78.7221875 65.36591797 -76.796875 65.05029297 C-67.76908285 63.01405594 -59.71559113 58.50812936 -54.609375 50.67529297 C-49.44123934 41.9873307 -47.24270883 33.16324541 -49.07421875 23.12841797 C-51.75540758 12.91134338 -57.4836936 5.06139851 -66.609375 -0.32470703 C-76.83392174 -4.93256943 -84.91376603 -5.59177296 -95.4453125 -1.98095703 C-97.609375 -1.32470703 -97.609375 -1.32470703 -100.609375 -1.32470703 C-101.61558469 -4.92716966 -102.61327087 -8.53193826 -103.609375 -12.13720703 C-103.89554687 -13.16136719 -104.18171875 -14.18552734 -104.4765625 -15.24072266 C-104.74726563 -16.22363281 -105.01796875 -17.20654297 -105.296875 -18.21923828 C-105.54824219 -19.12520752 -105.79960937 -20.03117676 -106.05859375 -20.96459961 C-106.609375 -23.32470703 -106.609375 -23.32470703 -106.609375 -26.32470703 C-69.21434407 -34.80293267 -29.28233842 -24.10284713 0 0 Z " fill="#338DDF" transform="translate(439.609375,36.32470703125)"/>
<path d="M0 0 C0.0093457 1.13542236 0.01869141 2.27084473 0.02832031 3.44067383 C0.0681757 7.65103473 0.13392129 11.86066145 0.20751953 16.07055664 C0.23575514 17.89305189 0.2569568 19.71567019 0.27099609 21.53833008 C0.2923904 24.15770583 0.33901979 26.77559815 0.390625 29.39453125 C0.39185364 30.21025101 0.39308228 31.02597076 0.39434814 31.8664093 C0.48245482 36.3751368 0.48245482 36.3751368 2.85839844 40.04956055 C6.72365775 41.76495664 10.01513005 40.37206198 13.8125 38.9375 C19.97682074 37.12446449 26.12281165 37.31908089 32.078125 39.8203125 C37.36145417 43.06333162 41.13643561 48.1368045 43 54 C43.87197313 61.35093628 43.58523072 67.97600186 39 74 C33.99653345 79.42748913 29.06123028 81.99416822 21.625 82.3125 C17.58266792 82.237642 14.48520977 81.22444146 10.78515625 79.6796875 C8.37878601 78.76347651 6.53716235 78.56505788 4 79 C2.04111977 80.54175032 1.11449225 81.44946363 0.60127258 83.9172821 C0.59016953 84.63898087 0.57906647 85.36067963 0.56762695 86.10424805 C0.54783279 86.92487228 0.52803864 87.74549652 0.50764465 88.59098816 C0.50125473 89.47232925 0.49486481 90.35367035 0.48828125 91.26171875 C0.46135445 92.62040825 0.46135445 92.62040825 0.43388367 94.00654602 C0.37969341 96.90014996 0.34585714 99.79358815 0.3125 102.6875 C0.27933461 104.64911165 0.24484568 106.61070141 0.20898438 108.57226562 C0.1214691 113.38153542 0.06147585 118.19004445 0 123 C-9.24 123 -18.48 123 -28 123 C-28 118.71 -28 114.42 -28 110 C-30.20716225 99.69990952 -35.07436482 90.93835363 -44 85 C-53.78405008 79.74591459 -63.31536251 78.35480845 -74.0625 81.5625 C-84.1856145 85.2920685 -90.41049713 91.2642349 -95 101 C-96.94560492 105.8335063 -97.40131837 110.23880333 -97.625 115.375 C-97.74875 117.89125 -97.8725 120.4075 -98 123 C-104.6 123 -111.2 123 -118 123 C-118 89.81783047 -105.81944765 59.67489269 -82.7734375 35.7421875 C-61.17360978 14.38573812 -30.64557477 -0.36859578 0 0 Z " fill="#3C85E2" transform="translate(257,45)"/>
<path d="M0 0 C5.72152381 3.3130795 9.65770532 8.16274658 11.6875 14.4375 C12.25733549 19.8694383 12.52628886 25.36313564 10.125 30.375 C8.450376 33.30017187 8.450376 33.30017187 8.875 36.25 C9.57662881 38.60439862 9.57662881 38.60439862 11.6875 40.4375 C13.54286424 40.76639388 13.54286424 40.76639388 15.67822266 40.75634766 C16.49892242 40.77621735 17.31962219 40.79608704 18.16519165 40.81655884 C19.05169403 40.82811005 19.93819641 40.83966125 20.8515625 40.8515625 C21.75877045 40.87092865 22.66597839 40.8902948 23.60067749 40.9102478 C26.50452204 40.97013216 29.40840604 41.01646416 32.3125 41.0625 C34.27866333 41.10067165 36.2448098 41.13972289 38.2109375 41.1796875 C43.03637166 41.27750035 47.8616214 41.35699807 52.6875 41.4375 C52.6875 50.6775 52.6875 59.9175 52.6875 69.4375 C49.0575 69.4375 45.4275 69.4375 41.6875 69.4375 C32.42555752 70.81427523 24.93770264 74.29441127 18.6875 81.4375 C18.006875 82.159375 17.32625 82.88125 16.625 83.625 C11.3241078 91.31984352 8.76917906 100.16366137 10.12890625 109.453125 C12.49163068 120.20014583 17.33989926 128.09202692 26.6875 134.125 C31.81534981 137.29889091 36.2064481 138.68434032 42.25 139.0625 C43.36503906 139.13726562 44.48007813 139.21203125 45.62890625 139.2890625 C47.97952447 139.40314103 50.33411522 139.4375 52.6875 139.4375 C52.6875 145.3775 52.6875 151.3175 52.6875 157.4375 C44.54239851 157.50529472 36.39751662 157.56032669 28.25220871 157.59293652 C24.46995302 157.60858812 20.68790049 157.62981679 16.90576172 157.66381836 C13.25531265 157.69643041 9.60505891 157.71435682 5.9544754 157.72213173 C4.56220678 157.72767198 3.16994877 157.73849084 1.77776337 157.75469017 C-0.17311668 157.77648623 -2.12419354 157.77772559 -4.07519531 157.77807617 C-5.1855011 157.78473801 -6.29580688 157.79139984 -7.4397583 157.79826355 C-10.6510263 157.39498732 -12.01024268 156.67148996 -14.3125 154.4375 C-14.96264648 152.46728516 -14.96264648 152.46728516 -15.18359375 150.2265625 C-15.27987061 149.40027344 -15.37614746 148.57398438 -15.4753418 147.72265625 C-15.565979 146.84480469 -15.65661621 145.96695313 -15.75 145.0625 C-18.02388603 127.36511562 -25.53138365 114.8451426 -37.02490234 101.49951172 C-52.36709733 83.60821712 -62.52377597 65.44206841 -64.3125 41.4375 C-63.35883545 41.42291748 -62.4051709 41.40833496 -61.42260742 41.39331055 C-57.88316415 41.33532208 -54.34435676 41.25809042 -50.80541992 41.17504883 C-49.27394941 41.14180182 -47.74235644 41.11376907 -46.21069336 41.09106445 C-44.00842113 41.05751282 -41.80727088 41.0052009 -39.60546875 40.94921875 C-38.92099167 40.94282883 -38.23651459 40.9364389 -37.53129578 40.92985535 C-34.68909189 40.84201065 -32.73156233 40.72136416 -30.3449707 39.10473633 C-28.55357409 36.2119845 -29.62808848 33.64896946 -30.3125 30.4375 C-30.68375 29.179375 -31.055 27.92125 -31.4375 26.625 C-33.14253224 19.83110231 -32.43108455 13.68948414 -28.875 7.625 C-22.10257913 -1.46939374 -10.43934987 -4.57342947 0 0 Z " fill="#556FE9" transform="translate(204.3125,139.5625)"/>
<path d="M0 0 C8.91 0 17.82 0 27 0 C27.0825 2.43375 27.165 4.8675 27.25 7.375 C27.60992605 14.21151847 28.6708442 19.91723738 32 26 C32.34933594 26.64324219 32.69867188 27.28648437 33.05859375 27.94921875 C37.92570821 35.71302418 46.78534387 40.20102059 55.375 42.6875 C66.11479075 43.96604652 75.09121225 42.02976475 83.96484375 35.66015625 C90.77492027 30.10491149 95.40763408 22.72678968 97 14 C97.06831987 11.5842094 97.08487642 9.16665287 97.0625 6.75 C97.0315625 3.40875 97.0315625 3.40875 97 0 C103.27 0 109.54 0 116 0 C116 24.1550738 103.24504725 43.57742102 87.95703125 61.33447266 C75.72750262 75.58066437 67.93405517 90.59022101 67.50390625 109.66015625 C66.80987613 112.88282323 65.56243961 113.95496907 63 116 C60.1272583 116.48101807 60.1272583 116.48101807 56.76269531 116.45410156 C55.50169006 116.45379944 54.24068481 116.45349731 52.94146729 116.45318604 C51.57034674 116.43276105 50.19923267 116.41189709 48.828125 116.390625 C47.42137456 116.38316117 46.01461369 116.3774689 44.60784912 116.37347412 C40.91191718 116.3582286 37.21661773 116.31895731 33.52093506 116.2746582 C29.74711665 116.23368143 25.97319568 116.21545804 22.19921875 116.1953125 C14.79919136 116.15246099 7.39968443 116.08422405 0 116 C-0.029729 114.71367676 -0.029729 114.71367676 -0.06005859 113.40136719 C-0.13829521 110.21052358 -0.22499343 107.0200526 -0.31738281 103.82958984 C-0.35559338 102.45044757 -0.39046002 101.07120833 -0.421875 99.69189453 C-0.46769624 97.70583033 -0.52666263 95.72008321 -0.5859375 93.734375 C-0.6173584 92.54038086 -0.6487793 91.34638672 -0.68115234 90.11621094 C-0.98368515 87.15945076 -1.28241979 85.40532945 -3 83 C-8.18425031 81.44472491 -11.21934178 82.3010061 -15.96484375 84.28515625 C-21.55931982 86.25020255 -26.8484267 85.16142824 -32.18359375 82.90625 C-38.33072773 79.83929283 -41.31100523 75.3632365 -43.75 69.0625 C-44.72594531 61.01095115 -43.60268711 55.08993689 -39.25 48.25 C-34.34291777 43.34291777 -29.09369169 41.20624611 -22.25 40.75 C-19.10588238 40.76749973 -16.82396801 41.3350505 -13.9375 42.5625 C-9.98962335 44.19771518 -7.17194983 44.25158495 -3 43 C-0.12403421 39.30867689 -0.64781556 34.53733734 -0.5859375 30.078125 C-0.56657135 29.21813904 -0.5472052 28.35815308 -0.5272522 27.47210693 C-0.46758186 24.73150479 -0.4211214 21.99086036 -0.375 19.25 C-0.33680866 17.38930483 -0.29775625 15.52862712 -0.2578125 13.66796875 C-0.16027321 9.1120712 -0.0806059 4.5563545 0 0 Z " fill="#5A6AEB" transform="translate(271,181)"/>
<path d="M0 0 C38.61 0 77.22 0 117 0 C117 29 117 29 113 34 C110.20742077 35.8224081 108.07525471 36.25213663 104.7696991 36.26742554 C103.93290115 36.27595551 103.09610321 36.28448547 102.23394775 36.29327393 C100.8694046 36.29191437 100.8694046 36.29191437 99.47729492 36.29052734 C98.51259781 36.29724457 97.5479007 36.30396179 96.55397034 36.31088257 C93.36275083 36.32989018 90.17174136 36.33378831 86.98046875 36.3359375 C84.7609295 36.34236396 82.5413911 36.34909221 80.32185364 36.35610962 C75.66726722 36.36808963 71.01275505 36.37178974 66.3581543 36.37060547 C60.39951068 36.37040235 54.44134438 36.39769455 48.48281384 36.43214989 C43.89738283 36.45441033 39.3120668 36.45844325 34.7265873 36.45738602 C32.53018869 36.45974364 30.33378699 36.4685762 28.13744164 36.48405075 C25.06158626 36.50369093 21.98676136 36.49787973 18.91088867 36.48583984 C18.00726593 36.49707886 17.10364319 36.50831787 16.17263794 36.51989746 C10.30649703 36.46167742 6.72088352 35.58457647 2 32 C-1.96923031 22.07692422 0 10.68747969 0 0 Z " fill="#6E59F0" transform="translate(205,311)"/>
<path d="M0 0 C19.14 0 38.28 0 58 0 C58 9.2760445 56.49318288 16.13864696 50 23 C41.41386038 29.70570408 32.70254807 30.93322439 22 30 C14.03011276 28.17675182 7.14163267 23.77457168 2.6171875 16.8984375 C-0.47708415 10.77480898 0 7.35758768 0 0 Z " fill="#7750F3" transform="translate(235,361)"/>
</svg>
